<?xml version="1.0" encoding="UTF-8" standalone="no"?>
<svg
   xmlns:dc="http://purl.org/dc/elements/1.1/"
   xmlns:cc="http://creativecommons.org/ns#"
   xmlns:rdf="http://www.w3.org/1999/02/22-rdf-syntax-ns#"
   xmlns:svg="http://www.w3.org/2000/svg"
   xmlns="http://www.w3.org/2000/svg"
   viewBox="0 0 205.49333 113.37333"
   height="113.37333"
   width="205.49333"
   xml:space="preserve"
   id="svg2"
   version="1.1"><metadata
     id="metadata8"><rdf:RDF><cc:Work
         rdf:about=""><dc:format>image/svg+xml</dc:format><dc:type
           rdf:resource="http://purl.org/dc/dcmitype/StillImage" /></cc:Work></rdf:RDF></metadata><defs
     id="defs6" /><g
     transform="matrix(1.3333333,0,0,-1.3333333,0,113.37333)"
     id="g10"><g
       transform="scale(0.1)"
       id="g12"><path
         id="path14"
         style="fill:#000000;fill-opacity:1;fill-rule:nonzero;stroke:none"
         d="m 425.172,425.535 h 12.168 v -25.48 h 18.816 v 25.48 h 12.168 v -62.074 h -12.168 v 25.762 H 437.34 v -25.762 h -12.168 v 62.074" /><path
         id="path16"
         style="fill:#000000;fill-opacity:1;fill-rule:nonzero;stroke:none"
         d="m 506.215,378.762 c 0.676,2.855 0.676,5.711 0.676,8.558 0,2.754 0,5.797 -0.676,8.649 -0.75,3.043 -3.133,5.703 -7.313,5.703 -4.093,0 -6.652,-2.563 -7.324,-5.984 -0.469,-2.571 -0.566,-5.614 -0.566,-8.368 0,-2.847 0.097,-5.703 0.566,-8.269 0.672,-3.422 3.231,-5.992 7.324,-5.992 4.18,0 6.563,2.664 7.313,5.703 z m -25.945,-2.469 c -0.762,3.137 -0.86,5.801 -0.86,11.027 0,5.133 0.098,7.793 0.86,10.934 1.902,8.078 9.121,13.785 18.816,13.785 9.699,0 16.641,-5.707 18.633,-13.785 0.761,-3.141 0.859,-5.801 0.859,-10.934 0,-5.226 -0.098,-7.89 -0.859,-11.027 -1.895,-7.984 -9.219,-13.785 -19.012,-13.785 -9.602,0 -16.445,5.801 -18.437,13.785" /><path
         id="path18"
         style="fill:#000000;fill-opacity:1;fill-rule:nonzero;stroke:none"
         d="m 528.727,376.293 c -0.762,3.137 -0.957,5.801 -0.957,11.027 0,5.133 0.195,7.895 0.957,11.125 1.894,7.985 8.074,13.594 17.871,13.594 9.121,0 15.488,-3.902 17.39,-12.738 0.383,-1.906 0.578,-3.903 0.578,-6.184 v -1.426 h -11.503 v 0.762 c 0,1.332 0,2.188 -0.098,2.945 -0.567,4.184 -2.754,6.274 -6.652,6.274 -4.09,0 -5.899,-2.469 -6.563,-6.559 -0.281,-1.707 -0.281,-5.039 -0.281,-7.793 0,-2.847 0,-5.609 0.281,-7.316 0.762,-4.188 2.949,-6.945 7.414,-6.945 4.473,0 7.41,2.757 9.316,6.371 l 7.793,-7.508 c -3.515,-6.274 -10.363,-9.414 -17.296,-9.414 -10.274,0 -16.356,5.703 -18.25,13.785" /><path
         id="path20"
         style="fill:#000000;fill-opacity:1;fill-rule:nonzero;stroke:none"
         d="m 585.914,363.461 h -11.691 v 65.496 h 11.691 v -21.012 c 2.09,2.285 5.418,4.094 9.793,4.094 9.602,0 15.586,-6.562 15.586,-16.262 v -32.316 h -11.785 v 30.801 c 0,4.465 -2.285,7.035 -6.75,7.035 -3.992,0 -6.844,-2.57 -6.844,-7.035 v -30.801" /><path
         id="path22"
         style="fill:#000000;fill-opacity:1;fill-rule:nonzero;stroke:none"
         d="m 642.828,390.93 c 6.836,-2.563 11.875,-5.321 11.875,-14.258 0,-8.27 -6.75,-14.164 -16.633,-14.164 -8.836,0 -15.398,3.902 -18.152,10.078 l 8.359,6.937 c 2.383,-3.894 5.321,-6.464 9.981,-6.464 2.469,0 4.472,1.05 4.472,3.332 0,2.66 -1.621,3.324 -5.703,4.847 l -3.711,1.328 c -8.742,3.235 -11.593,7.508 -11.593,14.829 0,8.371 6.933,14.644 16.445,14.644 11.406,0 16.348,-5.898 16.348,-14.836 0,-0.754 0,-1.515 -0.098,-2.277 H 642.73 c 0.098,0.472 0.098,1.043 0.098,1.426 0,4.375 -2.473,5.32 -4.855,5.32 -3.035,0 -4.559,-2.09 -4.559,-4.18 0,-2.469 1.992,-3.804 5.887,-5.226 l 3.527,-1.336" /><path
         id="path24"
         style="fill:#000000;fill-opacity:1;fill-rule:nonzero;stroke:none"
         d="m 664.762,376.293 c -0.762,3.137 -0.957,5.801 -0.957,11.027 0,5.133 0.195,7.895 0.957,11.125 1.894,7.985 8.074,13.594 17.871,13.594 9.121,0 15.488,-3.902 17.39,-12.738 0.383,-1.906 0.579,-3.903 0.579,-6.184 v -1.426 h -11.504 v 0.762 c 0,1.332 0,2.188 -0.098,2.945 -0.566,4.184 -2.754,6.274 -6.652,6.274 -4.09,0 -5.899,-2.469 -6.563,-6.559 -0.281,-1.707 -0.281,-5.039 -0.281,-7.793 0,-2.847 0,-5.609 0.281,-7.316 0.762,-4.188 2.949,-6.945 7.414,-6.945 4.473,0 7.41,2.757 9.317,6.371 l 7.793,-7.508 c -3.516,-6.274 -10.364,-9.414 -17.297,-9.414 -10.274,0 -16.356,5.703 -18.25,13.785" /><path
         id="path26"
         style="fill:#000000;fill-opacity:1;fill-rule:nonzero;stroke:none"
         d="m 721.48,363.461 h -11.691 v 65.496 h 11.691 v -21.012 c 2.09,2.285 5.418,4.094 9.793,4.094 9.602,0 15.586,-6.562 15.586,-16.262 v -32.316 h -11.785 v 30.801 c 0,4.465 -2.285,7.035 -6.75,7.035 -3.992,0 -6.844,-2.57 -6.844,-7.035 v -30.801" /><path
         id="path28"
         style="fill:#000000;fill-opacity:1;fill-rule:nonzero;stroke:none"
         d="m 784.75,368.023 c -2.566,-3.71 -6.66,-5.515 -11.023,-5.515 -9.61,0 -15.403,6.562 -15.403,16.351 v 32.129 h 11.692 v -30.89 c 0,-4.188 2.187,-6.942 6.648,-6.942 4.094,0 6.945,2.754 6.945,6.942 v 30.89 h 11.688 v -47.527 h -9.883 l -0.664,4.562" /><path
         id="path30"
         style="fill:#000000;fill-opacity:1;fill-rule:nonzero;stroke:none"
         d="m 819.801,375.438 c 0.664,-1.141 2,-1.711 3.808,-1.711 1.426,0 2.371,0.285 3.036,0.476 v -10.555 c -1.329,-0.281 -3.516,-0.472 -5.223,-0.472 -6.367,0 -10.938,2.851 -12.832,7.32 -0.86,2.09 -1.242,4.656 -1.242,7.223 v 51.238 h 11.789 v -50.949 c 0,-0.953 0.195,-1.809 0.664,-2.57" /><path
         id="path32"
         style="fill:#000000;fill-opacity:1;fill-rule:nonzero;stroke:none"
         d="m 844.781,395.398 c -0.195,-0.855 -0.285,-1.992 -0.285,-3.324 h 14.063 c 0,1.805 -0.086,2.758 -0.184,3.324 -0.566,3.903 -2.668,6.274 -6.75,6.274 -4.187,0 -6.18,-2.281 -6.844,-6.274 z m 24.715,2.856 c 0.567,-2.375 0.664,-4.566 0.664,-8.078 0,-2.098 0,-4.567 -0.097,-7.418 h -25.567 c 0,-1.238 0.09,-2.281 0.285,-3.235 0.762,-4.085 3.231,-6.464 7.606,-6.464 3.418,0 6.847,0.859 9.699,5.613 l 7.598,-7.32 c -4.278,-6.278 -10.645,-8.844 -17.493,-8.844 -10.164,0 -16.543,5.801 -18.535,13.785 -0.761,3.137 -0.859,5.801 -0.859,11.027 0,5.133 0.098,7.793 0.859,10.934 1.992,8.176 8.371,13.785 18.157,13.785 9.597,0 15.781,-5.707 17.683,-13.785" /><path
         id="path34"
         style="fill:#000000;fill-opacity:1;fill-rule:nonzero;stroke:none"
         d="m 915.551,400.727 v -37.266 h -11.688 v 37.266 h -5.324 v 10.261 h 5.324 v 3.996 c 0,9.317 5.703,14.926 14.071,14.926 4.746,0 7.597,-1.047 10.265,-2.66 l -3.711,-9.414 c -1.425,0.852 -2.851,1.234 -4.843,1.234 -2.375,0 -4.094,-1.711 -4.094,-4.66 v -3.422 h 9.414 v -10.261 h -9.414" /><path
         id="path36"
         style="fill:#000000;fill-opacity:1;fill-rule:nonzero;stroke:none"
         d="m 954.605,422.398 c 0,3.516 2.852,6.465 6.649,6.465 3.613,0 6.66,-2.949 6.66,-6.465 0,-3.519 -3.047,-6.652 -6.66,-6.652 -3.797,0 -6.649,3.133 -6.649,6.652 z m -18.156,0 c 0,3.516 2.852,6.465 6.653,6.465 3.613,0 6.648,-2.949 6.648,-6.465 0,-3.519 -3.035,-6.652 -6.648,-6.652 -3.801,0 -6.653,3.133 -6.653,6.652 z m 23.574,-54.375 c -2.566,-3.71 -6.66,-5.515 -11.023,-5.515 -9.609,0 -15.402,6.562 -15.402,16.351 v 32.129 h 11.691 v -30.89 c 0,-4.188 2.188,-6.942 6.649,-6.942 4.093,0 6.945,2.754 6.945,6.942 v 30.89 h 11.687 v -47.527 h -9.882 l -0.665,4.562" /><path
         id="path38"
         style="fill:#000000;fill-opacity:1;fill-rule:nonzero;stroke:none"
         d="m 994.789,363.461 h -11.687 v 47.527 h 9.882 l 0.664,-4.656 c 2.469,4.09 6.082,5.516 9.982,5.516 0.86,0 2.38,0 4.19,-0.289 v -11.504 c -2.95,0.574 -4.95,0.574 -6.19,0.574 -3.989,0 -6.841,-2.375 -6.841,-7.129 v -30.039" /><path
         id="path40"
         style="fill:#000000;fill-opacity:1;fill-rule:nonzero;stroke:none"
         d="m 1043.9,414.32 h -15.3 v 11.215 h 42.67 V 414.32 h -15.2 v -50.859 h -12.17 v 50.859" /><path
         id="path42"
         style="fill:#000000;fill-opacity:1;fill-rule:nonzero;stroke:none"
         d="m 1083.52,395.398 c -0.2,-0.855 -0.28,-1.992 -0.28,-3.324 h 14.06 c 0,1.805 -0.09,2.758 -0.19,3.324 -0.56,3.903 -2.66,6.274 -6.74,6.274 -4.19,0 -6.19,-2.281 -6.85,-6.274 z m 24.72,2.856 c 0.56,-2.375 0.66,-4.566 0.66,-8.078 0,-2.098 0,-4.567 -0.1,-7.418 h -25.56 c 0,-1.238 0.08,-2.281 0.28,-3.235 0.76,-4.085 3.23,-6.464 7.61,-6.464 3.41,0 6.84,0.859 9.69,5.613 l 7.6,-7.32 c -4.28,-6.278 -10.64,-8.844 -17.49,-8.844 -10.16,0 -16.54,5.801 -18.53,13.785 -0.77,3.137 -0.86,5.801 -0.86,11.027 0,5.133 0.09,7.793 0.86,10.934 1.99,8.176 8.37,13.785 18.15,13.785 9.6,0 15.78,-5.707 17.69,-13.785" /><path
         id="path44"
         style="fill:#000000;fill-opacity:1;fill-rule:nonzero;stroke:none"
         d="m 1118.95,376.293 c -0.76,3.137 -0.96,5.801 -0.96,11.027 0,5.133 0.2,7.895 0.96,11.125 1.89,7.985 8.08,13.594 17.87,13.594 9.12,0 15.49,-3.902 17.39,-12.738 0.38,-1.906 0.58,-3.903 0.58,-6.184 v -1.426 h -11.5 v 0.762 c 0,1.332 0,2.188 -0.1,2.945 -0.57,4.184 -2.76,6.274 -6.65,6.274 -4.09,0 -5.9,-2.469 -6.57,-6.559 -0.28,-1.707 -0.28,-5.039 -0.28,-7.793 0,-2.847 0,-5.609 0.28,-7.316 0.77,-4.188 2.95,-6.945 7.42,-6.945 4.47,0 7.41,2.757 9.31,6.371 l 7.8,-7.508 c -3.52,-6.274 -10.37,-9.414 -17.3,-9.414 -10.27,0 -16.36,5.703 -18.25,13.785" /><path
         id="path46"
         style="fill:#000000;fill-opacity:1;fill-rule:nonzero;stroke:none"
         d="m 1176.14,363.461 h -11.69 v 65.496 h 11.69 v -21.012 c 2.09,2.285 5.42,4.094 9.79,4.094 9.6,0 15.59,-6.562 15.59,-16.262 v -32.316 h -11.79 v 30.801 c 0,4.465 -2.28,7.035 -6.75,7.035 -3.99,0 -6.84,-2.57 -6.84,-7.035 v -30.801" /><path
         id="path48"
         style="fill:#000000;fill-opacity:1;fill-rule:nonzero;stroke:none"
         d="m 1225.05,363.461 h -11.69 v 47.527 h 9.98 l 0.57,-4.277 c 2.47,3.519 6.47,5.328 10.94,5.328 9.6,0 15.58,-6.562 15.58,-16.262 v -32.316 h -11.78 v 30.801 c 0,4.465 -2.29,7.035 -6.75,7.035 -4,0 -6.85,-2.57 -6.85,-7.035 v -30.801" /><path
         id="path50"
         style="fill:#000000;fill-opacity:1;fill-rule:nonzero;stroke:none"
         d="m 1262.77,363.461 v 47.527 h 11.78 v -47.527 z m -1.43,59.414 c 0,3.805 3.14,7.035 7.22,7.035 3.99,0 7.23,-3.23 7.23,-7.035 0,-3.805 -3.24,-7.227 -7.23,-7.227 -4.08,0 -7.22,3.422 -7.22,7.227" /><path
         id="path52"
         style="fill:#000000;fill-opacity:1;fill-rule:nonzero;stroke:none"
         d="m 1299.15,381.902 v -18.441 h -11.87 v 65.496 h 11.87 v -36.121 h 0.96 c 9.03,0 12.17,7.219 12.17,15.301 0,0.953 0,1.906 -0.1,2.851 h 11.98 c 0.09,-1.136 0.19,-2.277 0.19,-3.422 0,-9.121 -3.42,-17.39 -10.46,-21.957 l 13.98,-22.148 h -14.26 l -10.84,18.535 c -0.76,-0.094 -1.61,-0.094 -2.47,-0.094 h -1.15" /><path
         id="path54"
         style="fill:#000000;fill-opacity:1;fill-rule:nonzero;stroke:none"
         d="m 450.648,270.016 c -2.566,-3.7 -6.66,-5.504 -11.023,-5.504 -9.609,0 -15.402,6.551 -15.402,16.343 v 32.129 h 11.691 v -30.886 c 0,-4.192 2.188,-6.946 6.649,-6.946 4.093,0 6.945,2.754 6.945,6.946 v 30.886 h 11.687 v -47.527 h -9.882 l -0.665,4.559" /><path
         id="path56"
         style="fill:#000000;fill-opacity:1;fill-rule:nonzero;stroke:none"
         d="m 485.121,265.457 h -11.687 v 47.527 h 9.98 l 0.566,-4.273 c 2.469,3.512 6.465,5.32 10.938,5.32 9.598,0 15.586,-6.554 15.586,-16.25 v -32.324 h -11.789 v 30.801 c 0,4.465 -2.285,7.031 -6.746,7.031 -3.996,0 -6.848,-2.566 -6.848,-7.031 v -30.801" /><path
         id="path58"
         style="fill:#000000;fill-opacity:1;fill-rule:nonzero;stroke:none"
         d="m 548.023,281.719 c 0.477,2.176 0.477,4.746 0.477,7.691 0,2.949 0,5.422 -0.477,7.707 -0.859,4.082 -3.515,6.649 -7.707,6.649 -4.179,0 -6.836,-2.567 -7.597,-6.649 -0.379,-1.902 -0.379,-4.758 -0.379,-7.707 0,-2.945 0,-5.801 0.379,-7.691 0.761,-4.094 3.418,-6.758 7.597,-6.758 4.192,0 6.848,2.664 7.707,6.758 z m 1.805,-12.551 c -2.566,-2.664 -6.277,-4.656 -11.785,-4.656 -8.555,0 -14.738,5.601 -16.543,13.875 -0.664,3.23 -0.859,5.703 -0.859,10.926 0,5.238 0.195,7.992 0.859,11.222 1.609,8.27 8.555,13.496 17.012,13.496 4.375,0 7.605,-1.23 9.988,-3.136 v 20.058 h 11.691 v -65.496 h -9.796 l -0.567,3.711" /><path
         id="path60"
         style="fill:#000000;fill-opacity:1;fill-rule:nonzero;stroke:none"
         d="m 600.543,265.457 -9.035,38.973 c -1.141,4.941 -1.805,11.691 -1.805,16.261 v 6.844 h 12.168 v -6.844 c 0,-3.332 0.379,-9.132 1.141,-13.41 l 1.613,-8.738 c 1.336,-7.039 2.852,-13.594 2.949,-17.023 h 0.379 c 0.383,3.996 1.711,9.32 2.754,13.214 l 4.856,18.914 h 10.164 l 4.941,-17.488 c 1.523,-5.226 3.047,-11.504 3.43,-15.305 h 0.379 c 0.097,3.618 1.523,10.079 2.656,16.926 l 1.523,9.5 c 0.664,4.278 1.047,10.078 1.047,13.41 v 6.844 h 12.168 v -6.844 c 0,-4.57 -0.664,-11.218 -1.711,-16.261 l -8.457,-38.973 h -13.308 l -5.52,19.578 c -1.609,5.805 -2.09,9.414 -2.273,11.887 h -0.383 c -0.196,-2.57 -0.664,-6.082 -2.285,-11.973 l -5.223,-19.492 h -12.168" /><path
         id="path62"
         style="fill:#000000;fill-opacity:1;fill-rule:nonzero;stroke:none"
         d="m 662.105,265.457 v 47.527 h 11.786 v -47.527 z m -1.425,59.414 c 0,3.801 3.133,7.031 7.215,7.031 3.996,0 7.226,-3.23 7.226,-7.031 0,-3.801 -3.23,-7.226 -7.226,-7.226 -4.082,0 -7.215,3.425 -7.215,7.226" /><path
         id="path64"
         style="fill:#000000;fill-opacity:1;fill-rule:nonzero;stroke:none"
         d="m 697.828,265.457 h -11.691 v 47.527 h 9.883 l 0.664,-4.656 c 2.472,4.094 6.086,5.52 9.98,5.52 0.859,0 2.383,0 4.191,-0.285 v -11.504 c -2.949,0.566 -4.953,0.566 -6.183,0.566 -3.992,0 -6.844,-2.371 -6.844,-7.129 v -30.039" /><path
         id="path66"
         style="fill:#000000;fill-opacity:1;fill-rule:nonzero;stroke:none"
         d="m 734.594,264.695 c -7.977,0 -13.778,5.52 -13.778,14.922 v 23.106 h -5.324 v 10.261 h 5.324 v 12.93 h 11.688 v -12.93 H 743.91 V 302.723 H 732.504 V 279.91 c 0,-2.949 1.719,-4.656 4.277,-4.656 1.809,0 3.43,0.562 4.856,1.891 l 3.418,-9.5 c -2.375,-1.907 -5.508,-2.95 -10.461,-2.95" /><path
         id="path68"
         style="fill:#000000;fill-opacity:1;fill-rule:nonzero;stroke:none"
         d="m 772.691,292.93 c 6.836,-2.571 11.875,-5.325 11.875,-14.258 0,-8.274 -6.75,-14.16 -16.632,-14.16 -8.836,0 -15.399,3.894 -18.153,10.078 l 8.36,6.93 c 2.382,-3.895 5.32,-6.465 9.98,-6.465 2.469,0 4.473,1.047 4.473,3.332 0,2.656 -1.621,3.332 -5.703,4.843 l -3.711,1.336 c -8.742,3.235 -11.594,7.512 -11.594,14.825 0,8.371 6.934,14.64 16.445,14.64 11.407,0 16.348,-5.89 16.348,-14.824 0,-0.762 0,-1.523 -0.098,-2.285 h -11.687 c 0.097,0.476 0.097,1.047 0.097,1.426 0,4.375 -2.472,5.324 -4.855,5.324 -3.035,0 -4.559,-2.094 -4.559,-4.184 0,-2.468 1.993,-3.797 5.887,-5.222 l 3.527,-1.336" /><path
         id="path70"
         style="fill:#000000;fill-opacity:1;fill-rule:nonzero;stroke:none"
         d="m 794.625,278.289 c -0.762,3.137 -0.957,5.801 -0.957,11.024 0,5.136 0.195,7.89 0.957,11.125 1.895,7.988 8.074,13.593 17.871,13.593 9.121,0 15.488,-3.894 17.391,-12.734 0.383,-1.906 0.578,-3.899 0.578,-6.184 v -1.425 h -11.504 v 0.761 c 0,1.328 0,2.192 -0.098,2.949 -0.566,4.18 -2.754,6.274 -6.652,6.274 -4.09,0 -5.898,-2.473 -6.563,-6.555 -0.281,-1.719 -0.281,-5.039 -0.281,-7.804 0,-2.848 0,-5.602 0.281,-7.313 0.762,-4.191 2.95,-6.945 7.415,-6.945 4.472,0 7.41,2.754 9.316,6.371 l 7.793,-7.512 c -3.516,-6.269 -10.363,-9.402 -17.297,-9.402 -10.273,0 -16.355,5.703 -18.25,13.777" /><path
         id="path72"
         style="fill:#000000;fill-opacity:1;fill-rule:nonzero;stroke:none"
         d="m 851.344,265.457 h -11.692 v 65.496 h 11.692 v -21.004 c 2.09,2.274 5.418,4.082 9.793,4.082 9.601,0 15.586,-6.554 15.586,-16.25 v -32.324 h -11.785 v 30.801 c 0,4.465 -2.286,7.031 -6.75,7.031 -3.993,0 -6.844,-2.566 -6.844,-7.031 v -30.801" /><path
         id="path74"
         style="fill:#000000;fill-opacity:1;fill-rule:nonzero;stroke:none"
         d="m 907.875,275.055 c 1.613,0.383 2.941,2.004 2.941,4.179 0,2.286 -1.23,3.907 -2.851,4.375 -1.047,0.286 -2.656,0.286 -4.082,0.286 -1.426,0 -2.949,0 -3.996,-0.286 -1.805,-0.468 -2.852,-2.089 -2.852,-4.375 0,-2.175 1.231,-3.796 2.852,-4.179 1.144,-0.282 2.668,-0.282 3.996,-0.282 1.523,0 2.949,0 3.992,0.282 z m -5.703,-9.981 c -3.231,0 -4.754,0.196 -6.758,0.766 -5.984,1.707 -9.5,6.648 -9.5,13.59 0,7.226 4.375,11.308 9.5,12.836 2.004,0.562 4.191,0.757 7.422,0.757 2.852,0 5.227,-0.476 7.031,-1.238 v 5.801 c 0,3.809 -2.371,6.086 -6.082,6.086 -3.234,0 -5.703,-1.527 -7.609,-5.988 l -9.121,5.988 c 3.613,7.129 8.359,10.359 17.304,10.359 11.028,0 17.297,-7.414 17.297,-15.968 v -32.606 h -9.316 l -0.469,3.328 c -0.578,-0.574 -1.144,-1.043 -1.621,-1.426 -1.613,-1.425 -4.66,-2.285 -8.078,-2.285" /><path
         id="path76"
         style="fill:#000000;fill-opacity:1;fill-rule:nonzero;stroke:none"
         d="m 947.574,302.723 v -37.266 h -11.691 v 37.266 h -5.32 v 10.261 h 5.32 v 3.996 c 0,9.317 5.703,14.922 14.074,14.922 4.746,0 7.598,-1.047 10.262,-2.656 l -3.711,-9.414 c -1.426,0.859 -2.852,1.238 -4.844,1.238 -2.383,0 -4.09,-1.718 -4.09,-4.656 v -3.43 h 9.414 v -10.261 h -9.414" /><path
         id="path78"
         style="fill:#000000;fill-opacity:1;fill-rule:nonzero;stroke:none"
         d="m 981.313,264.695 c -7.989,0 -13.79,5.52 -13.79,14.922 v 23.106 h -5.32 v 10.261 h 5.32 v 12.93 h 11.692 v -12.93 h 11.406 V 302.723 H 979.215 V 279.91 c 0,-2.949 1.719,-4.656 4.277,-4.656 1.805,0 3.426,0.562 4.852,1.891 l 3.418,-9.5 c -2.371,-1.907 -5.508,-2.95 -10.449,-2.95" /><path
         id="path80"
         style="fill:#000000;fill-opacity:1;fill-rule:nonzero;stroke:none"
         d="m 1033.17,290.84 v -14.262 h 8.37 c 4.08,0 6.75,3.137 6.75,7.317 0,3.996 -2.67,6.945 -6.75,6.945 z m 0,25.758 v -15.496 h 6.94 c 4.37,0 7.6,3.328 7.6,7.8 0,4.465 -3.23,7.696 -7.6,7.696 z M 1021,265.457 v 62.078 h 19.86 c 11.22,0 18.93,-6.844 18.93,-18.062 0,-4.375 -1.91,-9.219 -6.94,-12.739 5.6,-3.523 7.7,-8.554 7.7,-13.406 0,-11.125 -7.32,-17.871 -18.26,-17.871 H 1021" /><path
         id="path82"
         style="fill:#000000;fill-opacity:1;fill-rule:nonzero;stroke:none"
         d="m 1081.04,297.398 c -0.2,-0.859 -0.28,-2 -0.28,-3.328 h 14.06 c 0,1.809 -0.09,2.754 -0.19,3.328 -0.56,3.899 -2.66,6.274 -6.75,6.274 -4.18,0 -6.18,-2.277 -6.84,-6.274 z m 24.72,2.856 c 0.56,-2.387 0.66,-4.563 0.66,-8.09 0,-2.09 0,-4.559 -0.1,-7.41 h -25.56 c 0,-1.231 0.08,-2.285 0.28,-3.234 0.76,-4.082 3.23,-6.465 7.61,-6.465 3.41,0 6.84,0.859 9.69,5.605 l 7.6,-7.312 c -4.28,-6.282 -10.64,-8.836 -17.49,-8.836 -10.16,0 -16.54,5.789 -18.53,13.777 -0.77,3.137 -0.86,5.801 -0.86,11.024 0,5.136 0.09,7.804 0.86,10.941 1.99,8.172 8.37,13.777 18.15,13.777 9.6,0 15.78,-5.703 17.69,-13.777" /><path
         id="path84"
         style="fill:#000000;fill-opacity:1;fill-rule:nonzero;stroke:none"
         d="m 1128.35,265.457 h -11.69 v 47.527 h 9.89 l 0.66,-4.656 c 2.47,4.094 6.08,5.52 9.98,5.52 0.86,0 2.38,0 4.19,-0.285 v -11.504 c -2.95,0.566 -4.95,0.566 -6.18,0.566 -3.99,0 -6.85,-2.371 -6.85,-7.129 v -30.039" /><path
         id="path86"
         style="fill:#000000;fill-opacity:1;fill-rule:nonzero;stroke:none"
         d="m 1161.6,277.438 c 0.66,-1.141 2,-1.715 3.8,-1.715 1.43,0 2.38,0.293 3.04,0.476 v -10.558 c -1.33,-0.282 -3.51,-0.465 -5.22,-0.465 -6.37,0 -10.94,2.847 -12.84,7.312 -0.85,2.102 -1.24,4.657 -1.24,7.227 v 51.238 h 11.79 v -50.957 c 0,-0.945 0.2,-1.805 0.67,-2.558" /><path
         id="path88"
         style="fill:#000000;fill-opacity:1;fill-rule:nonzero;stroke:none"
         d="m 1176.7,265.457 v 47.527 h 11.79 v -47.527 z m -1.42,59.414 c 0,3.801 3.13,7.031 7.21,7.031 4,0 7.23,-3.23 7.23,-7.031 0,-3.801 -3.23,-7.226 -7.23,-7.226 -4.08,0 -7.21,3.425 -7.21,7.226" /><path
         id="path90"
         style="fill:#000000;fill-opacity:1;fill-rule:nonzero;stroke:none"
         d="m 1212.43,265.457 h -11.69 v 47.527 h 9.98 l 0.56,-4.273 c 2.47,3.512 6.47,5.32 10.94,5.32 9.6,0 15.59,-6.554 15.59,-16.25 v -32.324 h -11.79 v 30.801 c 0,4.465 -2.29,7.031 -6.75,7.031 -3.99,0 -6.84,-2.566 -6.84,-7.031 v -30.801" /><path
         id="path92"
         style="fill:#76b900;fill-opacity:1;fill-rule:nonzero;stroke:none"
         d="m 451.051,153.785 h 9.394 v -25.312 c 0,-8.067 -0.363,-11.328 -1.554,-14.285 -2.364,-5.997 -7.918,-9.473 -16.133,-9.473 -8.281,0 -13.836,3.476 -16.133,9.402 -1.18,3.028 -1.621,6.289 -1.621,14.356 v 25.312 h 9.394 v -25.762 c 0,-6.062 0.079,-7.324 0.442,-8.875 0.82,-3.253 3.183,-5.625 7.918,-5.625 4.738,0 7.031,2.293 7.773,5.547 0.371,1.563 0.52,2.891 0.52,8.953 v 25.762" /><path
         id="path94"
         style="fill:#76b900;fill-opacity:1;fill-rule:nonzero;stroke:none"
         d="m 478.949,105.457 h -9.101 v 37 h 7.765 l 0.45,-3.328 c 1.921,2.734 5.027,4.141 8.503,4.141 7.481,0 12.141,-5.098 12.141,-12.649 v -25.164 h -9.18 v 23.973 c 0,3.476 -1.777,5.48 -5.254,5.48 -3.105,0 -5.324,-2.004 -5.324,-5.48 v -23.973" /><path
         id="path96"
         style="fill:#76b900;fill-opacity:1;fill-rule:nonzero;stroke:none"
         d="m 507.516,105.457 v 37 h 9.168 v -37 z m -1.114,46.25 c 0,2.957 2.442,5.477 5.625,5.477 3.106,0 5.625,-2.52 5.625,-5.477 0,-2.961 -2.519,-5.625 -5.625,-5.625 -3.183,0 -5.625,2.664 -5.625,5.625" /><path
         id="path98"
         style="fill:#76b900;fill-opacity:1;fill-rule:nonzero;stroke:none"
         d="m 534.82,105.457 c -2.812,5.703 -6.289,14.285 -8.437,19.758 -1.555,3.926 -2.442,8.582 -2.442,12.137 v 5.105 h 9.032 v -5.105 c 0,-2.586 0.664,-6.512 1.847,-10.059 1.114,-3.406 3.477,-8.438 4.512,-14.211 h 0.301 c 1.035,5.773 3.476,10.805 4.582,14.211 1.043,3.105 1.777,7.473 1.777,10.059 v 5.105 h 9.031 v -5.105 c 0,-3.555 -0.808,-8.36 -2.293,-12.137 -2.148,-5.473 -5.851,-14.055 -8.585,-19.758 h -9.325" /><path
         id="path100"
         style="fill:#76b900;fill-opacity:1;fill-rule:nonzero;stroke:none"
         d="m 570.043,130.32 c -0.145,-0.664 -0.223,-1.554 -0.223,-2.59 h 10.957 c 0,1.411 -0.078,2.153 -0.148,2.59 -0.449,3.035 -2.078,4.883 -5.254,4.883 -3.262,0 -4.812,-1.769 -5.332,-4.883 z m 19.238,2.227 c 0.449,-1.856 0.52,-3.555 0.52,-6.301 0,-1.617 0,-3.543 -0.071,-5.769 h -19.91 c 0,-0.957 0.078,-1.778 0.223,-2.508 0.598,-3.188 2.52,-5.039 5.918,-5.039 2.668,0 5.332,0.672 7.551,4.375 l 5.918,-5.707 c -3.332,-4.879 -8.282,-6.883 -13.614,-6.883 -7.921,0 -12.882,4.512 -14.433,10.73 -0.586,2.446 -0.664,4.512 -0.664,8.586 0,3.992 0.078,6.074 0.664,8.516 1.551,6.355 6.512,10.723 14.14,10.723 7.469,0 12.286,-4.434 13.758,-10.723" /><path
         id="path102"
         style="fill:#76b900;fill-opacity:1;fill-rule:nonzero;stroke:none"
         d="m 606.461,105.457 h -9.102 v 37 h 7.696 l 0.515,-3.621 c 1.926,3.184 4.739,4.285 7.766,4.285 0.672,0 1.855,0 3.262,-0.215 v -8.953 c -2.297,0.438 -3.848,0.438 -4.817,0.438 -3.105,0 -5.32,-1.844 -5.32,-5.543 v -23.391" /><path
         id="path104"
         style="fill:#76b900;fill-opacity:1;fill-rule:nonzero;stroke:none"
         d="m 637.535,126.844 c 5.332,-2 9.246,-4.141 9.246,-11.106 0,-6.433 -5.254,-11.023 -12.949,-11.023 -6.875,0 -11.98,3.039 -14.129,7.84 l 6.512,5.414 c 1.848,-3.039 4.14,-5.039 7.765,-5.039 1.922,0 3.485,0.816 3.485,2.593 0,2.075 -1.258,2.59 -4.442,3.774 l -2.89,1.031 c -6.809,2.52 -9.024,5.852 -9.024,11.543 0,6.516 5.399,11.399 12.801,11.399 8.879,0 12.727,-4.582 12.727,-11.543 0,-0.586 0,-1.18 -0.071,-1.778 h -9.101 c 0.07,0.371 0.07,0.821 0.07,1.114 0,3.41 -1.926,4.14 -3.769,4.14 -2.375,0 -3.555,-1.621 -3.555,-3.254 0,-1.922 1.551,-2.957 4.59,-4.07 l 2.734,-1.035" /><path
         id="path106"
         style="fill:#76b900;fill-opacity:1;fill-rule:nonzero;stroke:none"
         d="m 654.41,105.457 v 37 h 9.168 v -37 z m -1.113,46.25 c 0,2.957 2.441,5.477 5.625,5.477 3.105,0 5.625,-2.52 5.625,-5.477 0,-2.961 -2.52,-5.625 -5.625,-5.625 -3.184,0 -5.625,2.664 -5.625,5.625" /><path
         id="path108"
         style="fill:#76b900;fill-opacity:1;fill-rule:nonzero;stroke:none"
         d="m 684.965,104.859 c -6.211,0 -10.723,4.297 -10.723,11.621 v 17.993 h -4.148 v 7.984 h 4.148 v 10.07 h 9.102 v -10.07 h 8.879 v -7.984 h -8.879 v -17.766 c 0,-2.297 1.328,-3.625 3.332,-3.625 1.406,0 2.664,0.441 3.769,1.477 l 2.664,-7.403 c -1.843,-1.476 -4.285,-2.297 -8.144,-2.297" /><path
         id="path110"
         style="fill:#76b900;fill-opacity:1;fill-rule:nonzero;stroke:none"
         d="m 698.883,91.6875 v 8.3675 c 0.957,-0.1448 1.922,-0.1448 3.25,-0.1448 2.219,0 3.625,0.5858 5.109,3.8478 l 1.035,2.297 c -3.254,6.875 -6.953,14.722 -8.957,19.527 -1.777,4.223 -2.293,7.922 -2.293,11.621 v 5.254 h 9.403 v -5.254 c 0,-2.586 0.441,-5.625 1.621,-8.808 1.262,-3.473 3.781,-8.438 4.738,-14.129 h 0.301 c 1.105,6.14 3.625,11.394 4.66,14.129 1.258,3.261 1.629,6.222 1.629,8.808 v 5.254 h 9.328 v -5.254 c 0,-3.699 -0.598,-7.691 -2.227,-11.621 -2.363,-5.769 -7.472,-17.906 -11.027,-25.152 -2.734,-5.6253 -5.996,-9.1839 -12.363,-9.1839 -0.879,0 -1.922,0 -4.207,0.4414" /><path
         id="path112"
         style="fill:#76b900;fill-opacity:1;fill-rule:nonzero;stroke:none"
         d="m 769.684,117.371 c 0.515,2.219 0.515,4.442 0.515,6.66 0,2.149 0,4.512 -0.515,6.739 -0.586,2.363 -2.442,4.433 -5.696,4.433 -3.183,0 -5.183,-1.992 -5.703,-4.656 -0.371,-2.004 -0.437,-4.367 -0.437,-6.516 0,-2.218 0.066,-4.441 0.437,-6.433 0.52,-2.668 2.52,-4.668 5.703,-4.668 3.254,0 5.11,2.078 5.696,4.441 z m -20.207,-1.926 c -0.586,2.446 -0.664,4.512 -0.664,8.586 0,3.992 0.078,6.074 0.664,8.516 1.484,6.289 7.109,10.723 14.66,10.723 7.547,0 12.949,-4.434 14.5,-10.723 0.597,-2.442 0.664,-4.524 0.664,-8.516 0,-4.074 -0.067,-6.14 -0.664,-8.586 -1.473,-6.218 -7.176,-10.73 -14.805,-10.73 -7.469,0 -12.801,4.512 -14.355,10.73" /><path
         id="path114"
         style="fill:#76b900;fill-opacity:1;fill-rule:nonzero;stroke:none"
         d="m 798.023,134.473 v -29.016 h -9.101 v 29.016 h -4.141 v 7.984 h 4.141 v 3.106 c 0,7.257 4.441,11.621 10.957,11.621 3.691,0 5.918,-0.809 7.988,-2.071 l -2.89,-7.324 c -1.106,0.664 -2.219,0.957 -3.77,0.957 -1.848,0 -3.184,-1.324 -3.184,-3.621 v -2.668 h 7.325 v -7.984 h -7.325" /><path
         id="path116"
         style="fill:#76b900;fill-opacity:1;fill-rule:nonzero;stroke:none"
         d="m 841.832,143.785 -5.996,-19.527 h 12.059 z m -8.73,-38.328 h -9.473 v 5.332 c 0,3.543 0.957,9.024 2.293,12.871 l 10.43,30.125 h 11.171 l 10.364,-30.191 c 1.336,-3.781 2.293,-9.262 2.293,-12.805 v -5.332 h -9.395 v 5.332 c 0,1.328 -0.144,3.25 -0.449,4.949 h -16.797 c -0.293,-1.699 -0.437,-3.621 -0.437,-4.949 v -5.332" /><path
         id="path118"
         style="fill:#76b900;fill-opacity:1;fill-rule:nonzero;stroke:none"
         d="m 876.539,130.105 c -0.293,-1.484 -0.293,-3.859 -0.293,-6.074 0,-2.297 0,-4.441 0.293,-5.918 0.664,-3.183 2.734,-5.254 5.996,-5.254 3.25,0 5.399,2.071 5.996,5.254 0.293,1.477 0.36,3.621 0.36,5.918 0,2.215 -0.067,4.59 -0.36,6.074 -0.597,3.172 -2.746,5.176 -5.996,5.176 -3.262,0 -5.332,-2.004 -5.996,-5.176 z m -0.293,-22.871 V 91.4727 h -9.101 v 50.9843 h 7.617 l 0.449,-2.957 c 1.992,2.219 4.949,3.77 9.316,3.77 6.661,0 11.395,-4.368 12.735,-10.801 0.515,-2.586 0.664,-4.367 0.664,-8.438 0,-4.074 -0.149,-6.211 -0.664,-8.73 -1.34,-6.438 -6.594,-10.586 -13.321,-10.586 -3.332,0 -5.851,0.965 -7.695,2.519" /><path
         id="path120"
         style="fill:#76b900;fill-opacity:1;fill-rule:nonzero;stroke:none"
         d="m 915.094,130.105 c -0.293,-1.484 -0.293,-3.859 -0.293,-6.074 0,-2.297 0,-4.441 0.293,-5.918 0.664,-3.183 2.734,-5.254 5.996,-5.254 3.25,0 5.398,2.071 5.996,5.254 0.293,1.477 0.359,3.621 0.359,5.918 0,2.215 -0.066,4.59 -0.359,6.074 -0.598,3.172 -2.746,5.176 -5.996,5.176 -3.262,0 -5.332,-2.004 -5.996,-5.176 z m -0.293,-22.871 V 91.4727 h -9.102 v 50.9843 h 7.617 l 0.45,-2.957 c 1.992,2.219 4.949,3.77 9.316,3.77 6.66,0 11.395,-4.368 12.734,-10.801 0.516,-2.586 0.664,-4.367 0.664,-8.438 0,-4.074 -0.148,-6.211 -0.664,-8.73 -1.339,-6.438 -6.593,-10.586 -13.32,-10.586 -3.332,0 -5.851,0.965 -7.695,2.519" /><path
         id="path122"
         style="fill:#76b900;fill-opacity:1;fill-rule:nonzero;stroke:none"
         d="m 953.793,114.781 c 0.52,-0.886 1.555,-1.336 2.961,-1.336 1.113,0 1.855,0.227 2.371,0.371 v -8.214 c -1.035,-0.223 -2.742,-0.372 -4.07,-0.372 -4.961,0 -8.516,2.227 -9.992,5.704 -0.665,1.621 -0.965,3.625 -0.965,5.625 v 39.882 h 9.179 v -39.668 c 0,-0.73 0.145,-1.406 0.516,-1.992" /><path
         id="path124"
         style="fill:#76b900;fill-opacity:1;fill-rule:nonzero;stroke:none"
         d="m 964.82,105.457 v 37 h 9.168 v -37 z m -1.113,46.25 c 0,2.957 2.441,5.477 5.625,5.477 3.106,0 5.625,-2.52 5.625,-5.477 0,-2.961 -2.519,-5.625 -5.625,-5.625 -3.184,0 -5.625,2.664 -5.625,5.625" /><path
         id="path126"
         style="fill:#76b900;fill-opacity:1;fill-rule:nonzero;stroke:none"
         d="m 991.09,130.32 c -0.149,-0.664 -0.227,-1.554 -0.227,-2.59 h 10.957 c 0,1.411 -0.08,2.153 -0.15,2.59 -0.45,3.035 -2.076,4.883 -5.248,4.883 -3.262,0 -4.817,-1.769 -5.332,-4.883 z m 19.24,2.227 c 0.45,-1.856 0.51,-3.555 0.51,-6.301 0,-1.617 0,-3.543 -0.06,-5.769 h -19.917 c 0,-0.957 0.078,-1.778 0.227,-2.508 0.594,-3.188 2.519,-5.039 5.918,-5.039 2.664,0 5.332,0.672 7.542,4.375 l 5.92,-5.707 c -3.33,-4.879 -8.28,-6.883 -13.611,-6.883 -7.918,0 -12.879,4.512 -14.433,10.73 -0.586,2.446 -0.664,4.512 -0.664,8.586 0,3.992 0.078,6.074 0.664,8.516 1.554,6.355 6.515,10.723 14.14,10.723 7.474,0 12.284,-4.434 13.764,-10.723" /><path
         id="path128"
         style="fill:#76b900;fill-opacity:1;fill-rule:nonzero;stroke:none"
         d="m 1038.37,118.113 c 0.37,1.7 0.37,3.7 0.37,5.996 0,2.293 0,4.219 -0.37,5.996 -0.67,3.172 -2.74,5.176 -5.99,5.176 -3.26,0 -5.34,-2.004 -5.92,-5.176 -0.3,-1.484 -0.3,-3.703 -0.3,-5.996 0,-2.296 0,-4.519 0.3,-5.996 0.58,-3.183 2.66,-5.254 5.92,-5.254 3.25,0 5.32,2.071 5.99,5.254 z m 1.41,-9.765 c -2,-2.082 -4.89,-3.633 -9.18,-3.633 -6.66,0 -11.47,4.363 -12.88,10.808 -0.52,2.512 -0.67,4.434 -0.67,8.508 0,4.071 0.15,6.223 0.67,8.731 1.26,6.445 6.66,10.508 13.25,10.508 3.4,0 5.92,-0.957 7.77,-2.442 v 15.613 h 9.11 v -50.984 h -7.63 l -0.44,2.891" /><path
         id="path130"
         style="fill:#76b900;fill-opacity:1;fill-rule:nonzero;stroke:none"
         d="m 1069.45,114.41 7.32,5.996 c 2.3,-4.812 5.48,-6.883 9.25,-6.883 3.48,0 5.55,1.778 5.55,4.883 0,2.664 -2.14,4.512 -4.66,5.625 l -5.11,2.293 c -6.95,3.188 -10.14,7.324 -10.14,13.774 0,8.504 6,14.422 14.73,14.422 7.99,0 14.87,-4.368 14.87,-15.469 0,-0.664 0,-1.328 -0.06,-2.071 h -9.48 c 0.07,0.665 0.07,1.336 0.07,2 0,4.219 -1.55,6.887 -5.55,6.887 -3.33,0 -5.18,-2.004 -5.18,-5.105 0,-2.231 0.82,-4.297 4.3,-5.918 l 6.14,-2.895 c 6.95,-3.25 9.7,-7.469 9.7,-12.945 0,-8.957 -6.08,-14.289 -15.92,-14.289 -7.55,0 -12.87,3.992 -15.83,9.695" /><path
         id="path132"
         style="fill:#76b900;fill-opacity:1;fill-rule:nonzero;stroke:none"
         d="m 1108.52,115.445 c -0.6,2.446 -0.74,4.512 -0.74,8.586 0,3.992 0.14,6.145 0.74,8.66 1.47,6.211 6.29,10.579 13.92,10.579 7.1,0 12.06,-3.028 13.53,-9.915 0.3,-1.484 0.45,-3.035 0.45,-4.812 v -1.105 h -8.96 v 0.585 c 0,1.036 0,1.711 -0.07,2.297 -0.44,3.262 -2.14,4.883 -5.18,4.883 -3.18,0 -4.59,-1.926 -5.11,-5.098 -0.22,-1.339 -0.22,-3.925 -0.22,-6.074 0,-2.218 0,-4.367 0.22,-5.691 0.6,-3.266 2.3,-5.41 5.78,-5.41 3.47,0 5.77,2.144 7.25,4.961 l 6.07,-5.852 c -2.74,-4.883 -8.07,-7.324 -13.47,-7.324 -8,0 -12.74,4.441 -14.21,10.73" /><path
         id="path134"
         style="fill:#76b900;fill-opacity:1;fill-rule:nonzero;stroke:none"
         d="m 1143.15,105.457 v 37 h 9.17 v -37 z m -1.11,46.25 c 0,2.957 2.44,5.477 5.62,5.477 3.11,0 5.63,-2.52 5.63,-5.477 0,-2.961 -2.52,-5.625 -5.63,-5.625 -3.18,0 -5.62,2.664 -5.62,5.625" /><path
         id="path136"
         style="fill:#76b900;fill-opacity:1;fill-rule:nonzero;stroke:none"
         d="m 1169.42,130.32 c -0.15,-0.664 -0.23,-1.554 -0.23,-2.59 h 10.96 c 0,1.411 -0.08,2.153 -0.15,2.59 -0.45,3.035 -2.08,4.883 -5.25,4.883 -3.26,0 -4.81,-1.769 -5.33,-4.883 z m 19.24,2.227 c 0.45,-1.856 0.51,-3.555 0.51,-6.301 0,-1.617 0,-3.543 -0.06,-5.769 h -19.92 c 0,-0.957 0.08,-1.778 0.23,-2.508 0.59,-3.188 2.52,-5.039 5.92,-5.039 2.66,0 5.33,0.672 7.54,4.375 l 5.92,-5.707 c -3.33,-4.879 -8.28,-6.883 -13.61,-6.883 -7.92,0 -12.88,4.512 -14.43,10.73 -0.59,2.446 -0.67,4.512 -0.67,8.586 0,3.992 0.08,6.074 0.67,8.516 1.55,6.355 6.51,10.723 14.14,10.723 7.47,0 12.28,-4.434 13.76,-10.723" /><path
         id="path138"
         style="fill:#76b900;fill-opacity:1;fill-rule:nonzero;stroke:none"
         d="m 1205.82,105.457 h -9.1 v 37 h 7.77 l 0.45,-3.328 c 1.92,2.734 5.02,4.141 8.5,4.141 7.48,0 12.14,-5.098 12.14,-12.649 v -25.164 h -9.18 v 23.973 c 0,3.476 -1.78,5.48 -5.25,5.48 -3.11,0 -5.33,-2.004 -5.33,-5.48 v -23.973" /><path
         id="path140"
         style="fill:#76b900;fill-opacity:1;fill-rule:nonzero;stroke:none"
         d="m 1233.8,115.445 c -0.59,2.446 -0.74,4.512 -0.74,8.586 0,3.992 0.15,6.145 0.74,8.66 1.48,6.211 6.29,10.579 13.92,10.579 7.1,0 12.06,-3.028 13.53,-9.915 0.31,-1.484 0.45,-3.035 0.45,-4.812 v -1.105 h -8.95 v 0.585 c 0,1.036 0,1.711 -0.08,2.297 -0.44,3.262 -2.14,4.883 -5.18,4.883 -3.18,0 -4.59,-1.926 -5.1,-5.098 -0.23,-1.339 -0.23,-3.925 -0.23,-6.074 0,-2.218 0,-4.367 0.23,-5.691 0.59,-3.266 2.29,-5.41 5.77,-5.41 3.47,0 5.77,2.144 7.25,4.961 l 6.07,-5.852 c -2.74,-4.883 -8.07,-7.324 -13.47,-7.324 -8,0 -12.73,4.441 -14.21,10.73" /><path
         id="path142"
         style="fill:#76b900;fill-opacity:1;fill-rule:nonzero;stroke:none"
         d="m 1276.79,130.32 c -0.15,-0.664 -0.22,-1.554 -0.22,-2.59 h 10.95 c 0,1.411 -0.07,2.153 -0.14,2.59 -0.45,3.035 -2.08,4.883 -5.26,4.883 -3.26,0 -4.81,-1.769 -5.33,-4.883 z m 19.24,2.227 c 0.45,-1.856 0.52,-3.555 0.52,-6.301 0,-1.617 0,-3.543 -0.07,-5.769 h -19.91 c 0,-0.957 0.07,-1.778 0.22,-2.508 0.6,-3.188 2.52,-5.039 5.92,-5.039 2.67,0 5.33,0.672 7.55,4.375 l 5.92,-5.707 c -3.33,-4.879 -8.29,-6.883 -13.62,-6.883 -7.92,0 -12.88,4.512 -14.43,10.73 -0.59,2.446 -0.67,4.512 -0.67,8.586 0,3.992 0.08,6.074 0.67,8.516 1.55,6.355 6.51,10.723 14.14,10.723 7.47,0 12.28,-4.434 13.76,-10.723" /><path
         id="path144"
         style="fill:#76b900;fill-opacity:1;fill-rule:nonzero;stroke:none"
         d="m 1319.41,126.844 c 5.33,-2 9.25,-4.141 9.25,-11.106 0,-6.433 -5.26,-11.023 -12.95,-11.023 -6.88,0 -11.99,3.039 -14.13,7.84 l 6.51,5.414 c 1.85,-3.039 4.14,-5.039 7.76,-5.039 1.93,0 3.49,0.816 3.49,2.593 0,2.075 -1.26,2.59 -4.44,3.774 l -2.89,1.031 c -6.81,2.52 -9.03,5.852 -9.03,11.543 0,6.516 5.4,11.399 12.81,11.399 8.87,0 12.72,-4.582 12.72,-11.543 0,-0.586 0,-1.18 -0.07,-1.778 h -9.1 c 0.07,0.371 0.07,0.821 0.07,1.114 0,3.41 -1.93,4.14 -3.77,4.14 -2.37,0 -3.56,-1.621 -3.56,-3.254 0,-1.922 1.56,-2.957 4.59,-4.07 l 2.74,-1.035" /><path
         id="path146"
         style="fill:#76b900;fill-opacity:1;fill-rule:nonzero;stroke:none"
         d="m 797.184,690.816 h 53.148 v -106.3 h -53.148 v 106.3 0" /><path
         id="path148"
         style="fill:#76b900;fill-opacity:1;fill-rule:nonzero;stroke:none"
         d="m 903.48,584.516 v -53.145 h -53.148 v 53.145 h 53.148 v 0" /><path
         id="path150"
         style="fill:#76b900;fill-opacity:1;fill-rule:nonzero;stroke:none"
         d="m 425.137,743.969 h 53.148 v -53.153 h 53.153 v -53.148 h -53.153 v -53.152 h 53.153 v -53.145 h -53.153 c -29.355,0 -53.148,23.793 -53.148,53.145 0.207,-0.024 0,159.453 0,159.453 v 0" /><path
         id="path152"
         style="fill:#76b900;fill-opacity:1;fill-rule:nonzero;stroke:none"
         d="m 584.582,690.816 h 53.152 v -106.3 h 53.153 v 106.3 h 53.144 v -106.3 h 53.153 v -53.145 h -159.45 c -29.351,0 -53.152,23.793 -53.152,53.145 v 106.3 0" /><path
         id="path154"
         style="fill:#76b900;fill-opacity:1;fill-rule:nonzero;stroke:none"
         d="M 265.688,637.668 V 531.371 h -53.149 v 106.297 h 53.149 v 0" /><path
         id="path156"
         style="fill:#76b900;fill-opacity:1;fill-rule:nonzero;stroke:none"
         d="m 265.688,743.969 v -53.153 h -53.149 v 53.153 h 53.149 v 0" /><path
         id="path158"
         style="fill:#76b900;fill-opacity:1;fill-rule:nonzero;stroke:none"
         d="m 265.66,690.816 53.149,0.008 c 29.355,0 53.175,-23.808 53.175,-53.156 V 531.371 H 318.84 v 106.297 h -53.152 l -0.028,53.148 v 0" /></g></g></svg>